<svg xmlns="http://www.w3.org/2000/svg" width="40" height="40" viewBox="0 0 40 40">
    <g fill="#FFF" fill-rule="evenodd">
        <path d="M13.77 31.715c0 .47.344.812.816.812h3.302v-1.636h-3.302c-.472 0-.816.342-.816.824"/>
        <path d="M32.558 32.182h4.699v2.147h-4.7c-1.643 0-2.71-.994-2.71-2.564v-4.088c0-1.558 1.067-2.577 2.71-2.577h5.265l-1.24 2.148h-4.024c-.258 0-.442.16-.442.43v4.087c0 .27.184.417.442.417zm-8.423 0h4.699v2.147h-4.7c-1.644 0-2.71-.994-2.71-2.564v-4.088c0-1.558 1.066-2.577 2.71-2.577h5.264l-1.239 2.148h-4.024c-.258 0-.442.16-.442.43v4.087c0 .27.184.417.442.417zm-4.105 2.147h-5.828c-1.632 0-2.834-1.202-2.834-2.835 0-1.632 1.202-2.835 2.834-2.835h3.559v-.982c0-.27-.16-.429-.43-.429h-5.485l1.24-2.148h4.245c1.632 0 2.7 1.019 2.7 2.577v6.652zM7.953 27.248v7.081h-2.27v-7.081H2.504V25.1h9.068l-1.24 2.148h-2.38zM0 40h40V0H0v40z"/>
    </g>
</svg>
