<svg xmlns="http://www.w3.org/2000/svg" width="15" height="29" viewBox="0 0 15 29">
    <path fill="#FFF" fill-rule="evenodd" d="M7.5 1.552c3.272 0 5.948 2.676 5.948 5.948v8.684c0 3.272-2.676 5.949-5.948 5.949-3.272 0-5.948-2.677-5.948-5.949V7.5c0-3.272 2.676-5.948 5.948-5.948m0 3.36a1.03 1.03 0 1 1 0 2.062 1.03 1.03 0 0 1 0-2.062m0-1.36a2.39 2.39 0 1 1 0 4.781 2.39 2.39 0 0 1 0-4.78m-2.18 21.75l2.18 2.18 2.18-2.18c.54-.54 1.67.067.869.867l-2.605 2.606a.612.612 0 0 1-.444.179.612.612 0 0 1-.444-.18L4.451 26.17c-.784-.783.458-1.279.868-.868M7.5 0C11.625 0 15 3.375 15 7.5v8.684c0 4.125-3.375 7.5-7.5 7.5S0 20.31 0 16.184V7.5C0 3.375 3.375 0 7.5 0" opacity=".9"/>
</svg>
