<svg xmlns="http://www.w3.org/2000/svg" width="52" height="28" viewBox="0 0 52 28">
    <g fill="none" fill-rule="evenodd">
        <path fill="#FFF" d="M0 0h52v28H0z"/>
        <path fill="#000" d="M11 0h26v28H11z"/>
        <path fill="#FFF" d="M20 22.504c0 .287.25.496.594.496H23v-1h-2.406c-.343 0-.594.21-.594.504"/>
        <path fill="#FFF" d="M32.79 22.527h3.29v1.504h-3.29c-1.15 0-1.897-.696-1.897-1.796v-2.86c0-1.092.747-1.805 1.897-1.805h3.686l-.868 1.504H32.79c-.18 0-.309.111-.309.3v2.861c0 .19.13.292.31.292zm-5.896 0h3.29v1.504h-3.29c-1.15 0-1.898-.696-1.898-1.796v-2.86c0-1.092.747-1.805 1.898-1.805h3.685l-.867 1.504h-2.818c-.18 0-.309.111-.309.3v2.861c0 .19.13.292.31.292zm-2.873 1.504h-4.08c-1.142 0-1.983-.842-1.983-1.985 0-1.142.841-1.984 1.984-1.984h2.49v-.688c0-.189-.111-.3-.3-.3h-3.84l.868-1.504h2.972c1.142 0 1.89.713 1.89 1.804v4.657zm-8.454-4.957v4.957h-1.59v-4.957h-2.224V17.57h6.348l-.868 1.504h-1.666zM10 28h28V0H10v28z"/>
    </g>
</svg>
