<svg xmlns="http://www.w3.org/2000/svg" width="394" height="51" viewBox="0 0 394 51">
    <g fill="#FFF" fill-rule="nonzero">
        <path d="M96 0H54.644l-5.03 28.681h26.454l-.954 5.03H51.808a6.756 6.756 0 0 0-6.028 4.202H17.156l.122-.709c.208-1.176.208-1.176 1.735-1.426l17.416-2.507c3.73-.545 6.462-1.539 8.353-3.051 1.89-1.513 3.14-4.158 3.712-7.694l.946-5.895c.633-3.907 0-7.01-1.865-9.206-1.865-2.195-4.64-3.224-8.413-3.224H8.205L5.933 17.003h28.623l-.451 2.273c-.312 1.366-.312 1.366-1.735 1.539l-17.347 2.463c-3.765.554-6.48 1.548-8.292 3.052-1.813 1.504-3.114 4.071-3.782 7.676L0 51h43.863c1.05-2.438 3.018-4.201 5.638-4.201h27.755c7.399 0 11.076-3.112 12.282-10.373l1.388-8.246c.642-3.882 0-6.976-1.882-9.189s-4.65-3.25-8.353-3.25h-14l.426-2.593h26.558L96 0zM112.668 43.243c-4.797-2.152-8.042-5.98-8.995-10.028-.346-1.61.001-3.29.962-4.646.265-.5.752-.856 1.322-.966a6.93 6.93 0 0 0-1.763-.495c-1.508-.366-3.092.217-3.968 1.46A14.083 14.083 0 0 0 99 34.249c.013 4.676 2.28 9.077 6.128 11.9a15.24 15.24 0 0 0 4.26 2.143c.211.068.431.12.643.18.65.173 1.31.31 1.975.41h.15l.582.068c.294 0 .588.017.882.051h1.42c.282 0 .564 0 .881-.068h.097c.23 0 .459-.034.688-.103l.406-.068h.07a16.538 16.538 0 0 0 6.278-2.776 14.899 14.899 0 0 0 2.54-2.417c-3.73 1.708-8.694 1.708-13.332-.334M104.992 25.66c2.325-2.62 5.75-4.316 9.51-4.706 3.759-.39 7.54.557 10.498 2.63-3.262-2.678-7.705-3.956-12.141-3.49-4.436.466-8.41 2.628-10.859 5.906a5.955 5.955 0 0 1 2.992-.34"/>
        <path d="M113.998 42.133A14.986 14.986 0 0 0 120.011 44a9.235 9.235 0 0 0 2.423-.942C125.361 41.243 134 29.308 134 29.308s-4.704-.969-6.738.529c-2.034 1.497-3.581 3.84-5.845 6.386-2.263 2.545-3.263 4.148-5.261 4.65a8.876 8.876 0 0 1-4.156 0c.61.414 1.247.82 1.963 1.216"/>
        <path d="M127.953 42.457c1.774-1.254 6.047-6.735 6.047-6.735s-3.245-1.625-6.206 0c-2.962 1.625-2.864 2.038-5.799 4.327-2.934 2.29-5.115 2.526-6.729 2.433a1.438 1.438 0 0 1-.266 0c4.22 1.87 9.753 2.173 12.944 0M133 20.243a9.413 9.413 0 0 0-8.19 1.975c-2.6 2.31-8.25 17.753-12.687 18.625a6.819 6.819 0 0 1-2.123.124c.87.075 1.745.022 2.6-.159 4.437-.882 10.304-15.126 13-17.312a8.234 8.234 0 0 1 6.048-1.666l-2.738 4.936 4.09-6.523zM320.517 47l.572-4.715h-7.983c-2.6 0-4.333-1.918-4.082-4.28l1.422-11.715a4.644 4.644 0 0 1 1.56-2.885 5.546 5.546 0 0 1 3.666-1.403h24.155a4.322 4.322 0 0 1 3.31 1.395c.676.793.977 1.842.824 2.876l-1.482 11.732a5.294 5.294 0 0 1-5.252 4.27h-7.8l-.573 4.716-8.337.009zm9.698-11.331h3.779a.66.66 0 0 0 .65-.55l.797-6.501h-4.333l-.893 7.051zm-12.662 0h4.333l.867-7.051h-4.334l-.866 7.051zM202.537 47l-.455-4.357-8.121.096L192.498 47H184l8.717-23.754a2.068 2.068 0 0 1 1.91-1.238h12.185c.767-.082 1.46.46 1.56 1.22L211 47h-8.463zm-6.185-10.588h5.038l-.771-6.884h-1.674l-2.593 6.884zM243.378 46.974a5.646 5.646 0 0 1-4.306-1.864 4.74 4.74 0 0 1-1.008-3.779l1.67-13.714a6.027 6.027 0 0 1 2.025-3.762A7.173 7.173 0 0 1 246.53 22h8.914c2.799 0 5.925 1.237 5.52 4.72l-.534 4.353h-8.32l.302-2.481h-4.59l-1.438 11.799h4.599l.361-2.978h8.329l-.474 3.936c-.405 3.108-3.566 5.651-6.89 5.651l-8.931-.026zM285 47l3.011-25H308l-.802 6.599h-11.807l-.375 3.085h11.815l-.674 5.649h-11.815l-.376 3.077h11.807L304.99 47zM164 47l3.085-24.998h16.655a4.395 4.395 0 0 1 3.348 1.395 3.56 3.56 0 0 1 .877 2.876l-1.534 11.732a5.375 5.375 0 0 1-5.32 4.28h-7.995l-.587 4.706L164 47zm10.764-17.153l-.78 5.813h3.708a.761.761 0 0 0 .745-.645l.876-6.406h-4.382l-.167 1.238zM144.231 22L140 28.599h8.273L146.04 47h8.195l2.24-18.401h6.723L164 22zM229.831 22l-1.115 9.24h-4.65L225.18 22h-8.16L214 47h8.16l1.107-9.144h4.66L226.81 47h8.16L238 22zM276.828 22l-1.107 9.24h-4.652l1.116-9.24h-8.172L261 47h8.163l1.099-9.144h4.66L273.816 47h8.164L285 22zM389.755 27.23h-7.943l.712-5.23h-8.482L371 47h16.252a5.587 5.587 0 0 0 3.676-1.403 4.606 4.606 0 0 0 1.565-2.877l1.486-11.21c.243-2.353-1.634-4.28-4.224-4.28zm-5.215 12.143a1.21 1.21 0 0 1-1.199 1.072h-3.207l.808-6.59h4.268l-.67 5.518zM346.815 22L346 28.599h7.315L351.045 47h8.34l2.27-18.401h6.035L372 22zM106.58 14l1.735-10.245h-1.421L102.218 14H98l6.592-14H113l-2.41 14zM113 14l2.407-14H127l-.613 3.57h-7.563l-.27 1.566h6.832l-.577 3.347h-6.833l-.333 1.947h7.743l-.613 3.57z"/>
        <path d="M128.562 14l1.693-10.245H126L126.643 0H139l-.643 3.755h-4.22L132.444 14z"/>
    </g>
</svg>
