<svg xmlns="http://www.w3.org/2000/svg" width="508" height="50" viewBox="0 0 508 50">
    <g fill="#FFF" fill-rule="nonzero">
        <path d="M361.033 50l1.144-9.43h-15.964c-5.2 0-8.667-3.836-8.165-8.56l2.843-23.43a9.289 9.289 0 0 1 3.12-5.77 11.093 11.093 0 0 1 7.333-2.806h48.31a8.643 8.643 0 0 1 6.621 2.79 7.245 7.245 0 0 1 1.647 5.752l-2.964 23.464c-1 5.019-5.415 8.608-10.504 8.542h-15.601l-1.144 9.43-16.676.018zm19.397-22.662h7.558a1.32 1.32 0 0 0 1.3-1.098l1.595-13.005h-8.667l-1.786 14.103zm-25.325 0h8.667l1.734-14.103h-8.667l-1.734 14.103zM125.075 50l-.911-8.714-16.243.192L104.995 50H88l17.433-47.509a4.136 4.136 0 0 1 3.82-2.474h24.372a2.835 2.835 0 0 1 3.119 2.44L142 50h-16.925zm-12.37-21.175h10.074l-1.541-13.768h-3.347l-5.186 13.768zM206.756 49.948a11.293 11.293 0 0 1-8.613-3.727 9.48 9.48 0 0 1-2.015-7.559l3.341-27.429a12.054 12.054 0 0 1 4.048-7.523A14.346 14.346 0 0 1 213.06 0h17.828c5.598 0 11.85 2.473 11.04 9.44l-1.067 8.707h-16.64l.604-4.963h-9.181l-2.877 23.598h9.198l.724-5.957h16.656l-.947 7.872c-.81 6.218-7.131 11.303-13.78 11.303l-17.862-.052zM290 50l6.023-50H336l-1.604 13.197h-23.614l-.75 6.172h23.63l-1.347 11.297h-23.632l-.75 6.154h23.614L329.977 50zM48 50L54.17.004h33.31a8.79 8.79 0 0 1 6.697 2.79 7.12 7.12 0 0 1 1.753 5.752L92.862 32.01c-1.031 5.017-5.492 8.604-10.641 8.56H66.232l-1.174 9.413L48 50zm21.528-34.307l-1.56 11.628h7.415a1.522 1.522 0 0 0 1.49-1.29l1.754-12.813H69.86l-.333 2.475zM8.462 0L0 13.197h16.546L12.082 50h16.39l4.482-36.803h13.443L48 0zM179.662 0l-2.23 18.48h-9.302L170.361 0h-16.32L148 50h16.32l2.214-18.288h9.319L173.622 50h16.32L196 0zM273.657 0l-2.215 18.48h-9.305L264.37 0h-16.343L242 50h16.326l2.198-18.288h9.321L267.631 50h16.326L290 0zM499.51 10.46h-15.887L485.048 0h-16.964L462 50h32.504a11.175 11.175 0 0 0 7.353-2.807 9.213 9.213 0 0 0 3.128-5.753l2.973-22.42c.486-4.707-3.268-8.56-8.448-8.56zm-10.43 24.285a2.419 2.419 0 0 1-2.398 2.145h-6.414l1.617-13.18h8.534l-1.338 11.035zM413.63 0L412 13.197h14.63L422.091 50h16.679l4.538-36.803h12.071L464 0z"/>
    </g>
</svg>
